# xmcd CD database file
#
# Track frame offsets:
#	150
#	21092
#	40347
#	56517
#	77132
#	99622
#	129977
#	144752
#	171735
#	198782
#	220282
#	238635
#	253865
#	274320
#	291327
#	312872
#
# Disc length: 4404 seconds
#
# Revision: 0
# Processed by: cddbd v1.5.1PL0 Copyright (c) Steve Scherf et al.
# Submitted via: CDex 1.51
#
DISCID=ee113210
DTITLE=Passion Jazz - The Best of Volume 2
DYEAR=2001
DGENRE=Jazz
TTITLE0=cool shades - Chis Standring
TTITLE1=dream your dream - Duncan Miller
TTITLE2=everybody be cool - Sugar and Silk
TTITLE3=touch my soul - Johann Asmundsson
TTITLE4=coastral route - Beatifik
TTITLE5=a sunday breeze - Michael White Project
TTITLE6=feeling good - Suanne Braun
TTITLE7=hypnotique - Bill Sharpe
TTITLE8=to the bone - The Jazz Steppers
TTITLE9=just for you - Jill Saward and Jason Rebello
TTITLE10=n'iceland - Fridrik Karlsson
TTITLE11=square route - Nite Flyte
TTITLE12=I am a camera - Arnold McCuller
TTITLE13=wonderland - Espirito
TTITLE14=I thought about you - Breakfast Included
TTITLE15=shorter straw - Cathi Ogden
EXTD=YEAR: 2001
EXTT0=
EXTT1=
EXTT2=
EXTT3=
EXTT4=
EXTT5=
EXTT6=
EXTT7=
EXTT8=
EXTT9=
EXTT10=
EXTT11=
EXTT12=
EXTT13=
EXTT14=
EXTT15=
PLAYORDER=
